<?xml version="1.0" standalone="no"?>
<!DOCTYPE svg PUBLIC "-//W3C//DTD SVG 1.1//EN" "http://www.w3.org/Graphics/SVG/1.1/DTD/svg11.dtd" >
<!--
2013-9-30: Created.
-->
<svg>
<metadata>
Created by iconfont
</metadata>
<defs>

<font id="iconfont" horiz-adv-x="1024" >
  <font-face
    font-family="iconfont"
    font-weight="500"
    font-stretch="normal"
    units-per-em="1024"
    ascent="896"
    descent="-128"
  />
    <missing-glyph />
    
    <glyph glyph-name="angledoubledown" unicode="&#58898;" d="M797.142857 402.285714q0-7.428571-5.714286-13.142857l-266.285714-266.285714q-5.714286-5.714286-13.142857-5.714286t-13.142857 5.714286l-266.285714 266.285714q-5.714286 5.714286-5.714286 13.142857t5.714286 13.142857l28.571429 28.571429q5.714286 5.714286 13.142857 5.714286t13.142857-5.714286l224.571429-224.571429 224.571429 224.571429q5.714286 5.714286 13.142857 5.714286t13.142857-5.714286l28.571429-28.571429q5.714286-5.714286 5.714286-13.142857zm0 219.428571q0-7.428571-5.714286-13.142857l-266.285714-266.285714q-5.714286-5.714286-13.142857-5.714286t-13.142857 5.714286l-266.285714 266.285714q-5.714286 5.714286-5.714286 13.142857t5.714286 13.142857l28.571429 28.571429q5.714286 5.714286 13.142857 5.714286t13.142857-5.714286l224.571429-224.571429 224.571429 224.571429q5.714286 5.714286 13.142857 5.714286t13.142857-5.714286l28.571429-28.571429q5.714286-5.714286 5.714286-13.142857z"  horiz-adv-x="1024" />

    
    <glyph glyph-name="angledoubleleft" unicode="&#58899;" d="M577.714286 109.714286q0-7.428571-5.714286-13.142857l-28.571429-28.571429q-5.714286-5.714286-13.142857-5.714286t-13.142857 5.714286l-266.285714 266.285714q-5.714286 5.714286-5.714286 13.142857t5.714286 13.142857l266.285714 266.285714q5.714286 5.714286 13.142857 5.714286t13.142857-5.714286l28.571429-28.571429q5.714286-5.714286 5.714286-13.142857t-5.714286-13.142857l-224.571429-224.571429 224.571429-224.571429q5.714286-5.714286 5.714286-13.142857zm219.428571 0q0-7.428571-5.714286-13.142857l-28.571429-28.571429q-5.714286-5.714286-13.142857-5.714286t-13.142857 5.714286l-266.285714 266.285714q-5.714286 5.714286-5.714286 13.142857t5.714286 13.142857l266.285714 266.285714q5.714286 5.714286 13.142857 5.714286t13.142857-5.714286l28.571429-28.571429q5.714286-5.714286 5.714286-13.142857t-5.714286-13.142857l-224.571429-224.571429 224.571429-224.571429q5.714286-5.714286 5.714286-13.142857z"  horiz-adv-x="1024" />

    
    <glyph glyph-name="angledoubleright" unicode="&#58900;" d="M559.428571 347.428571q0-7.428571-5.714286-13.142857l-266.285714-266.285714q-5.714286-5.714286-13.142857-5.714286t-13.142857 5.714286l-28.571429 28.571429q-5.714286 5.714286-5.714286 13.142857t5.714286 13.142857l224.571429 224.571429-224.571429 224.571429q-5.714286 5.714286-5.714286 13.142857t5.714286 13.142857l28.571429 28.571429q5.714286 5.714286 13.142857 5.714286t13.142857-5.714286l266.285714-266.285714q5.714286-5.714286 5.714286-13.142857zm219.428571 0q0-7.428571-5.714286-13.142857l-266.285714-266.285714q-5.714286-5.714286-13.142857-5.714286t-13.142857 5.714286l-28.571429 28.571429q-5.714286 5.714286-5.714286 13.142857t5.714286 13.142857l224.571429 224.571429-224.571429 224.571429q-5.714286 5.714286-5.714286 13.142857t5.714286 13.142857l28.571429 28.571429q5.714286 5.714286 13.142857 5.714286t13.142857-5.714286l266.285714-266.285714q5.714286-5.714286 5.714286-13.142857z"  horiz-adv-x="1024" />

    
    <glyph glyph-name="angledoubleup" unicode="&#58901;" d="M797.142857 146.285714q0-7.428571-5.714286-13.142857l-28.571429-28.571429q-5.714286-5.714286-13.142857-5.714286t-13.142857 5.714286l-224.571429 224.571429-224.571429-224.571429q-5.714286-5.714286-13.142857-5.714286t-13.142857 5.714286l-28.571429 28.571429q-5.714286 5.714286-5.714286 13.142857t5.714286 13.142857l266.285714 266.285714q5.714286 5.714286 13.142857 5.714286t13.142857-5.714286l266.285714-266.285714q5.714286-5.714286 5.714286-13.142857zm0 219.428571q0-7.428571-5.714286-13.142857l-28.571429-28.571429q-5.714286-5.714286-13.142857-5.714286t-13.142857 5.714286l-224.571429 224.571429-224.571429-224.571429q-5.714286-5.714286-13.142857-5.714286t-13.142857 5.714286l-28.571429 28.571429q-5.714286 5.714286-5.714286 13.142857t5.714286 13.142857l266.285714 266.285714q5.714286 5.714286 13.142857 5.714286t13.142857-5.714286l266.285714-266.285714q5.714286-5.714286 5.714286-13.142857z"  horiz-adv-x="1024" />

    
    <glyph glyph-name="angledown" unicode="&#58902;" d="M797.142857 475.428571q0-7.428571-5.714286-13.142857l-266.285714-266.285714q-5.714286-5.714286-13.142857-5.714286t-13.142857 5.714286l-266.285714 266.285714q-5.714286 5.714286-5.714286 13.142857t5.714286 13.142857l28.571429 28.571429q5.714286 5.714286 13.142857 5.714286t13.142857-5.714286l224.571429-224.571429 224.571429 224.571429q5.714286 5.714286 13.142857 5.714286t13.142857-5.714286l28.571429-28.571429q5.714286-5.714286 5.714286-13.142857z"  horiz-adv-x="1024" />

    
    <glyph glyph-name="angleleft" unicode="&#58903;" d="M687.428571 585.142857q0-7.428571-5.714286-13.142857l-224.571429-224.571429 224.571429-224.571429q5.714286-5.714286 5.714286-13.142857t-5.714286-13.142857l-28.571429-28.571429q-5.714286-5.714286-13.142857-5.714286t-13.142857 5.714286l-266.285714 266.285714q-5.714286 5.714286-5.714286 13.142857t5.714286 13.142857l266.285714 266.285714q5.714286 5.714286 13.142857 5.714286t13.142857-5.714286l28.571429-28.571429q5.714286-5.714286 5.714286-13.142857z"  horiz-adv-x="1024" />

    
    <glyph glyph-name="angleright" unicode="&#58904;" d="M669.142857 347.428571q0-7.428571-5.714286-13.142857l-266.285714-266.285714q-5.714286-5.714286-13.142857-5.714286t-13.142857 5.714286l-28.571429 28.571429q-5.714286 5.714286-5.714286 13.142857t5.714286 13.142857l224.571429 224.571429-224.571429 224.571429q-5.714286 5.714286-5.714286 13.142857t5.714286 13.142857l28.571429 28.571429q5.714286 5.714286 13.142857 5.714286t13.142857-5.714286l266.285714-266.285714q5.714286-5.714286 5.714286-13.142857z"  horiz-adv-x="1024" />

    
    <glyph glyph-name="angleup" unicode="&#58905;" d="M797.142857 219.428571q0-7.428571-5.714286-13.142857l-28.571429-28.571429q-5.714286-5.714286-13.142857-5.714286t-13.142857 5.714286l-224.571429 224.571429-224.571429-224.571429q-5.714286-5.714286-13.142857-5.714286t-13.142857 5.714286l-28.571429 28.571429q-5.714286 5.714286-5.714286 13.142857t5.714286 13.142857l266.285714 266.285714q5.714286 5.714286 13.142857 5.714286t13.142857-5.714286l266.285714-266.285714q5.714286-5.714286 5.714286-13.142857z"  horiz-adv-x="1024" />

    
    <glyph glyph-name="arrowcircledown" unicode="&#58909;" d="M806.857143 383.428571q0 15.428571-10.285714 25.714286l-52 52q-10.285714 10.285714-25.714286 10.285714t-25.714286-10.285714l-108-108 0 286.857143q0 14.857143-10.857143 25.714286t-25.714286 10.857143l-73.142857 0q-14.857143 0-25.714286-10.857143t-10.857143-25.714286l0-286.857143-108 108q-10.857143 10.857143-25.714286 10.857143t-25.714286-10.857143l-52-52q-10.285714-10.285714-10.285714-25.714286t10.285714-25.714286l206.857143-206.857143 52-52q10.285714-10.285714 25.714286-10.285714t25.714286 10.285714l52 52 206.857143 206.857143q10.285714 10.285714 10.285714 25.714286zm144 0.571429q0-119.428571-58.857143-220.285714t-159.714286-159.714286-220.285714-58.857143-220.285714 58.857143-159.714286 159.714286-58.857143 220.285714 58.857143 220.285714 159.714286 159.714286 220.285714 58.857143 220.285714-58.857143 159.714286-159.714286 58.857143-220.285714z"  horiz-adv-x="1024" />

    
    <glyph glyph-name="arrowcircleleft" unicode="&#58910;" d="M804.571429 347.428571l0 73.142857q0 14.857143-10.857143 25.714286t-25.714286 10.857143l-286.857143 0 108 108q10.857143 10.857143 10.857143 25.714286t-10.857143 25.714286l-52 52q-10.285714 10.285714-25.714286 10.285714t-25.714286-10.285714l-206.857143-206.857143-52-52q-10.285714-10.285714-10.285714-25.714286t10.285714-25.714286l52-52 206.857143-206.857143q10.285714-10.285714 25.714286-10.285714t25.714286 10.285714l52 52q10.285714 10.285714 10.285714 25.714286t-10.285714 25.714286l-108 108 286.857143 0q14.857143 0 25.714286 10.857143t10.857143 25.714286zm146.285714 36.571429q0-119.428571-58.857143-220.285714t-159.714286-159.714286-220.285714-58.857143-220.285714 58.857143-159.714286 159.714286-58.857143 220.285714 58.857143 220.285714 159.714286 159.714286 220.285714 58.857143 220.285714-58.857143 159.714286-159.714286 58.857143-220.285714z"  horiz-adv-x="1024" />

    
    <glyph glyph-name="arrowcircleright" unicode="&#58915;" d="M807.428571 384q0 15.428571-10.285714 25.714286l-52 52-206.857143 206.857143q-10.285714 10.285714-25.714286 10.285714t-25.714286-10.285714l-52-52q-10.285714-10.285714-10.285714-25.714286t10.285714-25.714286l108-108-286.857143 0q-14.857143 0-25.714286-10.857143t-10.857143-25.714286l0-73.142857q0-14.857143 10.857143-25.714286t25.714286-10.857143l286.857143 0-108-108q-10.857143-10.857143-10.857143-25.714286t10.857143-25.714286l52-52q10.285714-10.285714 25.714286-10.285714t25.714286 10.285714l206.857143 206.857143 52 52q10.285714 10.285714 10.285714 25.714286zm143.428571 0q0-119.428571-58.857143-220.285714t-159.714286-159.714286-220.285714-58.857143-220.285714 58.857143-159.714286 159.714286-58.857143 220.285714 58.857143 220.285714 159.714286 159.714286 220.285714 58.857143 220.285714-58.857143 159.714286-159.714286 58.857143-220.285714z"  horiz-adv-x="1024" />

    
    <glyph glyph-name="arrowcircleup" unicode="&#58916;" d="M806.857143 384.571429q0 15.428571-10.285714 25.714286l-206.857143 206.857143-52 52q-10.285714 10.285714-25.714286 10.285714t-25.714286-10.285714l-52-52-206.857143-206.857143q-10.285714-10.285714-10.285714-25.714286t10.285714-25.714286l52-52q10.285714-10.285714 25.714286-10.285714t25.714286 10.285714l108 108 0-286.857143q0-14.857143 10.857143-25.714286t25.714286-10.857143l73.142857 0q14.857143 0 25.714286 10.857143t10.857143 25.714286l0 286.857143 108-108q10.857143-10.857143 25.714286-10.857143t25.714286 10.857143l52 52q10.285714 10.285714 10.285714 25.714286zm144-0.571429q0-119.428571-58.857143-220.285714t-159.714286-159.714286-220.285714-58.857143-220.285714 58.857143-159.714286 159.714286-58.857143 220.285714 58.857143 220.285714 159.714286 159.714286 220.285714 58.857143 220.285714-58.857143 159.714286-159.714286 58.857143-220.285714z"  horiz-adv-x="1024" />

    
    <glyph glyph-name="arrowdown" unicode="&#58917;" d="M957.142857 420.571429q0-30.285714-21.142857-51.428571l-372-372.571429q-22.285714-21.142857-52-21.142857-30.285714 0-51.428571 21.142857l-372 372.571429q-21.714286 20.571429-21.714286 51.428571 0 30.285714 21.714286 52l42.285714 42.857143q22.285714 21.142857 52 21.142857 30.285714 0 51.428571-21.142857l168-168 0 402.285714q0 29.714286 21.714286 51.428571t51.428571 21.714286l73.142857 0q29.714286 0 51.428571-21.714286t21.714286-51.428571l0-402.285714 168 168q21.142857 21.142857 51.428571 21.142857 29.714286 0 52-21.142857l42.857143-42.857143q21.142857-22.285714 21.142857-52z"  horiz-adv-x="1024" />

    
    <glyph glyph-name="arrowleft" unicode="&#58918;" d="M950.857143 384l0-73.142857q0-30.285714-18.571429-51.714286t-48.285714-21.428571l-402.285714 0 167.428571-168q21.714286-20.571429 21.714286-51.428571t-21.714286-51.428571l-42.857143-43.428571q-21.142857-21.142857-51.428571-21.142857-29.714286 0-52 21.142857l-372 372.571429q-21.142857 21.142857-21.142857 51.428571 0 29.714286 21.142857 52l372 371.428571q21.714286 21.714286 52 21.714286 29.714286 0 51.428571-21.714286l42.857143-42.285714q21.714286-21.714286 21.714286-52t-21.714286-52l-167.428571-167.428571 402.285714 0q29.714286 0 48.285714-21.428571t18.571429-51.714286z"  horiz-adv-x="1024" />

    
    <glyph glyph-name="arrowright" unicode="&#58919;" d="M914.285714 347.428571q0-30.857143-21.142857-52l-372-372q-22.285714-21.142857-52-21.142857-29.142857 0-51.428571 21.142857l-42.857143 42.857143q-21.714286 21.714286-21.714286 52t21.714286 52l167.428571 167.428571-402.285714 0q-29.714286 0-48.285714 21.428571t-18.571429 51.714286l0 73.142857q0 30.285714 18.571429 51.714286t48.285714 21.428571l402.285714 0-167.428571 168q-21.714286 20.571429-21.714286 51.428571t21.714286 51.428571l42.857143 42.857143q21.714286 21.714286 51.428571 21.714286 30.285714 0 52-21.714286l372-372q21.142857-20 21.142857-51.428571z"  horiz-adv-x="1024" />

    
    <glyph glyph-name="arrowup" unicode="&#58920;" d="M957.142857 341.142857q0-29.142857-21.142857-51.428571l-42.857143-42.857143q-21.714286-21.714286-52-21.714286-30.857143 0-51.428571 21.714286l-168 167.428571 0-402.285714q0-29.714286-21.428571-48.285714t-51.714286-18.571429l-73.142857 0q-30.285714 0-51.714286 18.571429t-21.428571 48.285714l0 402.285714-168-167.428571q-20.571429-21.714286-51.428571-21.714286t-51.428571 21.714286l-42.857143 42.857143q-21.714286 21.714286-21.714286 51.428571 0 30.285714 21.714286 52l372 372q20 21.142857 51.428571 21.142857 30.857143 0 52-21.142857l372-372q21.142857-22.285714 21.142857-52z"  horiz-adv-x="1024" />

    
    <glyph glyph-name="book" unicode="&#58966;" d="M973.142857 622.857143q22.857143-32.571429 10.285714-73.714286l-157.142857-517.714286q-10.857143-36.571429-43.714286-61.428571t-70-24.857143l-527.428571 0q-44 0-84.857143 30.571429t-56.857143 75.142857q-13.714286 38.285714-1.142857 72.571429 0 2.285714 1.714286 15.428571t2.285714 21.142857q0.571429 4.571429-1.714286 12.285714t-1.714286 11.142857q1.142857 6.285714 4.571429 12t9.428571 13.428571 9.428571 13.428571q13.142857 21.714286 25.714286 52.285714t17.142857 52.285714q1.714286 5.714286 2.857143 17.142857t2.857143 16q1.714286 6.285714 9.714286 16t9.714286 13.142857q12 20.571429 24 52.571429t14.285714 51.428571q0.571429 5.142857-1.428571 18.285714t2.857143 16q2.285714 7.428571 12.571429 17.428571t12.571429 12.857143q10.857143 14.857143 24.285714 48.285714t15.714286 55.142857q0.571429 4.571429-1.714286 14.571429t-1.142857 15.142857q1.142857 4.571429 5.142857 10.285714t10.285714 13.142857 9.714286 12q4.571429 6.857143 9.428571 17.428571t8.571429 20 9.142857 20.571429 11.142857 18.285714 15.142857 13.428571 20.571429 6.571429 27.142857-3.142857l-0.571429-1.714286q21.714286 5.142857 29.142857 5.142857l434.857143 0q42.285714 0 65.142857-32t10.285714-74.285714l-156.571429-517.714286q-20.571429-68-40.857143-87.714286t-73.428571-19.714286l-496.571429 0q-15.428571 0-21.714286-8.571429-6.285714-9.142857-0.571429-24.571429 13.714286-40 82.285714-40l527.428571 0q16.571429 0 32 8.857143t20 23.714286l171.428571 564q4 12.571429 2.857143 32.571429 21.714286-8.571429 33.714286-24.571429zm-608-1.142857q-2.285714-7.428571 1.142857-12.857143t11.428571-5.428571l347.428571 0q7.428571 0 14.571429 5.428571t9.428571 12.857143l12 36.571429q2.285714 7.428571-1.142857 12.857143t-11.428571 5.428571l-347.428571 0q-7.428571 0-14.571429-5.428571t-9.428571-12.857143zm-47.428571-146.285714q-2.285714-7.428571 1.142857-12.857143t11.428571-5.428571l347.428571 0q7.428571 0 14.571429 5.428571t9.428571 12.857143l12 36.571429q2.285714 7.428571-1.142857 12.857143t-11.428571 5.428571l-347.428571 0q-7.428571 0-14.571429-5.428571t-9.428571-12.857143z"  horiz-adv-x="1024" />

    
    <glyph glyph-name="bookmarko" unicode="&#58967;" d="M804.571429 749.714286l-585.142857 0 0-709.714286 241.714286 232 50.857143 48.571429 50.857143-48.571429 241.714286-232 0 709.714286zm6.857143 73.142857q13.142857 0 25.142857-5.142857 18.857143-7.428571 30-23.428571t11.142857-35.428571l0-736.571429q0-19.428571-11.142857-35.428571t-30-23.428571q-10.857143-4.571429-25.142857-4.571429-27.428571 0-47.428571 18.285714l-252 242.285714-252-242.285714q-20.571429-18.857143-47.428571-18.857143-13.142857 0-25.142857 5.142857-18.857143 7.428571-30 23.428571t-11.142857 35.428571l0 736.571429q0 19.428571 11.142857 35.428571t30 23.428571q12 5.142857 25.142857 5.142857l598.857143 0z"  horiz-adv-x="1024" />

    
    <glyph glyph-name="bookmark" unicode="&#58968;" d="M811.428571 822.857143q13.142857 0 25.142857-5.142857 18.857143-7.428571 30-23.428571t11.142857-35.428571l0-736.571429q0-19.428571-11.142857-35.428571t-30-23.428571q-10.857143-4.571429-25.142857-4.571429-27.428571 0-47.428571 18.285714l-252 242.285714-252-242.285714q-20.571429-18.857143-47.428571-18.857143-13.142857 0-25.142857 5.142857-18.857143 7.428571-30 23.428571t-11.142857 35.428571l0 736.571429q0 19.428571 11.142857 35.428571t30 23.428571q12 5.142857 25.142857 5.142857l598.857143 0z"  horiz-adv-x="1024" />

    
    <glyph glyph-name="caretdown" unicode="&#58989;" d="M804.571429 493.714286q0-14.857143-10.857143-25.714286l-256-256q-10.857143-10.857143-25.714286-10.857143t-25.714286 10.857143l-256 256q-10.857143 10.857143-10.857143 25.714286t10.857143 25.714286 25.714286 10.857143l512 0q14.857143 0 25.714286-10.857143t10.857143-25.714286z"  horiz-adv-x="1024" />

    
    <glyph glyph-name="caretleft" unicode="&#58990;" d="M694.857143 640l0-512q0-14.857143-10.857143-25.714286t-25.714286-10.857143-25.714286 10.857143l-256 256q-10.857143 10.857143-10.857143 25.714286t10.857143 25.714286l256 256q10.857143 10.857143 25.714286 10.857143t25.714286-10.857143 10.857143-25.714286z"  horiz-adv-x="1024" />

    
    <glyph glyph-name="caretright" unicode="&#58991;" d="M658.285714 384q0-14.857143-10.857143-25.714286l-256-256q-10.857143-10.857143-25.714286-10.857143t-25.714286 10.857143-10.857143 25.714286l0 512q0 14.857143 10.857143 25.714286t25.714286 10.857143 25.714286-10.857143l256-256q10.857143-10.857143 10.857143-25.714286z"  horiz-adv-x="1024" />

    
    <glyph glyph-name="caretup" unicode="&#58996;" d="M804.571429 201.142857q0-14.857143-10.857143-25.714286t-25.714286-10.857143l-512 0q-14.857143 0-25.714286 10.857143t-10.857143 25.714286 10.857143 25.714286l256 256q10.857143 10.857143 25.714286 10.857143t25.714286-10.857143l256-256q10.857143-10.857143 10.857143-25.714286z"  horiz-adv-x="1024" />

    
    <glyph glyph-name="chevroncircledown" unicode="&#59016;" d="M537.714286 153.714286l259.428571 259.428571q10.857143 10.857143 10.857143 25.714286t-10.857143 25.714286l-58.285714 58.285714q-10.857143 10.857143-25.714286 10.857143t-25.714286-10.857143l-175.428571-175.428571-175.428571 175.428571q-10.857143 10.857143-25.714286 10.857143t-25.714286-10.857143l-58.285714-58.285714q-10.857143-10.857143-10.857143-25.714286t10.857143-25.714286l259.428571-259.428571q10.857143-10.857143 25.714286-10.857143t25.714286 10.857143zm413.142857 230.285714q0-119.428571-58.857143-220.285714t-159.714286-159.714286-220.285714-58.857143-220.285714 58.857143-159.714286 159.714286-58.857143 220.285714 58.857143 220.285714 159.714286 159.714286 220.285714 58.857143 220.285714-58.857143 159.714286-159.714286 58.857143-220.285714z"  horiz-adv-x="1024" />

    
    <glyph glyph-name="chevroncircleleft" unicode="&#59017;" d="M592.571429 98.857143l58.285714 58.285714q10.857143 10.857143 10.857143 25.714286t-10.857143 25.714286l-175.428571 175.428571 175.428571 175.428571q10.857143 10.857143 10.857143 25.714286t-10.857143 25.714286l-58.285714 58.285714q-10.857143 10.857143-25.714286 10.857143t-25.714286-10.857143l-259.428571-259.428571q-10.857143-10.857143-10.857143-25.714286t10.857143-25.714286l259.428571-259.428571q10.857143-10.857143 25.714286-10.857143t25.714286 10.857143zm358.285714 285.142857q0-119.428571-58.857143-220.285714t-159.714286-159.714286-220.285714-58.857143-220.285714 58.857143-159.714286 159.714286-58.857143 220.285714 58.857143 220.285714 159.714286 159.714286 220.285714 58.857143 220.285714-58.857143 159.714286-159.714286 58.857143-220.285714z"  horiz-adv-x="1024" />

    
    <glyph glyph-name="chevroncircleright" unicode="&#59018;" d="M482.857143 98.857143l259.428571 259.428571q10.857143 10.857143 10.857143 25.714286t-10.857143 25.714286l-259.428571 259.428571q-10.857143 10.857143-25.714286 10.857143t-25.714286-10.857143l-58.285714-58.285714q-10.857143-10.857143-10.857143-25.714286t10.857143-25.714286l175.428571-175.428571-175.428571-175.428571q-10.857143-10.857143-10.857143-25.714286t10.857143-25.714286l58.285714-58.285714q10.857143-10.857143 25.714286-10.857143t25.714286 10.857143zm468 285.142857q0-119.428571-58.857143-220.285714t-159.714286-159.714286-220.285714-58.857143-220.285714 58.857143-159.714286 159.714286-58.857143 220.285714 58.857143 220.285714 159.714286 159.714286 220.285714 58.857143 220.285714-58.857143 159.714286-159.714286 58.857143-220.285714z"  horiz-adv-x="1024" />

    
    <glyph glyph-name="chevroncircleup" unicode="&#59019;" d="M738.857143 245.142857l58.285714 58.285714q10.857143 10.857143 10.857143 25.714286t-10.857143 25.714286l-259.428571 259.428571q-10.857143 10.857143-25.714286 10.857143t-25.714286-10.857143l-259.428571-259.428571q-10.857143-10.857143-10.857143-25.714286t10.857143-25.714286l58.285714-58.285714q10.857143-10.857143 25.714286-10.857143t25.714286 10.857143l175.428571 175.428571 175.428571-175.428571q10.857143-10.857143 25.714286-10.857143t25.714286 10.857143zm212 138.857143q0-119.428571-58.857143-220.285714t-159.714286-159.714286-220.285714-58.857143-220.285714 58.857143-159.714286 159.714286-58.857143 220.285714 58.857143 220.285714 159.714286 159.714286 220.285714 58.857143 220.285714-58.857143 159.714286-159.714286 58.857143-220.285714z"  horiz-adv-x="1024" />

    
    <glyph glyph-name="chevrondown" unicode="&#59020;" d="M961.714286 434.285714l-424-423.428571q-10.857143-10.857143-25.714286-10.857143t-25.714286 10.857143l-424 423.428571q-10.857143 10.857143-10.857143 26t10.857143 26l94.857143 94.285714q10.857143 10.857143 25.714286 10.857143t25.714286-10.857143l303.428571-303.428571 303.428571 303.428571q10.857143 10.857143 25.714286 10.857143t25.714286-10.857143l94.857143-94.285714q10.857143-10.857143 10.857143-26t-10.857143-26z"  horiz-adv-x="1024" />

    
    <glyph glyph-name="chevronleft" unicode="&#59021;" d="M815.428571 724l-303.428571-303.428571 303.428571-303.428571q10.857143-10.857143 10.857143-25.714286t-10.857143-25.714286l-94.857143-94.857143q-10.857143-10.857143-25.714286-10.857143t-25.714286 10.857143l-424 424q-10.857143 10.857143-10.857143 25.714286t10.857143 25.714286l424 424q10.857143 10.857143 25.714286 10.857143t25.714286-10.857143l94.857143-94.857143q10.857143-10.857143 10.857143-25.714286t-10.857143-25.714286z"  horiz-adv-x="1024" />

    
    <glyph glyph-name="chevronright" unicode="&#59022;" d="M778.857143 394.857143l-424-424q-10.857143-10.857143-25.714286-10.857143t-25.714286 10.857143l-94.857143 94.857143q-10.857143 10.857143-10.857143 25.714286t10.857143 25.714286l303.428571 303.428571-303.428571 303.428571q-10.857143 10.857143-10.857143 25.714286t10.857143 25.714286l94.857143 94.857143q10.857143 10.857143 25.714286 10.857143t25.714286-10.857143l424-424q10.857143-10.857143 10.857143-25.714286t-10.857143-25.714286z"  horiz-adv-x="1024" />

    
    <glyph glyph-name="chevronup" unicode="&#59023;" d="M961.714286 135.428571l-94.857143-94.285714q-10.857143-10.857143-25.714286-10.857143t-25.714286 10.857143l-303.428571 303.428571-303.428571-303.428571q-10.857143-10.857143-25.714286-10.857143t-25.714286 10.857143l-94.857143 94.285714q-10.857143 10.857143-10.857143 26t10.857143 26l424 423.428571q10.857143 10.857143 25.714286 10.857143t25.714286-10.857143l424-423.428571q10.857143-10.857143 10.857143-26t-10.857143-26z"  horiz-adv-x="1024" />

    
    <glyph glyph-name="ellipsish" unicode="&#59086;" d="M329.142857 475.428571l0-109.714286q0-22.857143-16-38.857143t-38.857143-16l-109.714286 0q-22.857143 0-38.857143 16t-16 38.857143l0 109.714286q0 22.857143 16 38.857143t38.857143 16l109.714286 0q22.857143 0 38.857143-16t16-38.857143zm292.571429 0l0-109.714286q0-22.857143-16-38.857143t-38.857143-16l-109.714286 0q-22.857143 0-38.857143 16t-16 38.857143l0 109.714286q0 22.857143 16 38.857143t38.857143 16l109.714286 0q22.857143 0 38.857143-16t16-38.857143zm292.571429 0l0-109.714286q0-22.857143-16-38.857143t-38.857143-16l-109.714286 0q-22.857143 0-38.857143 16t-16 38.857143l0 109.714286q0 22.857143 16 38.857143t38.857143 16l109.714286 0q22.857143 0 38.857143-16t16-38.857143z"  horiz-adv-x="1024" />

    
    <glyph glyph-name="ellipsisv" unicode="&#59087;" d="M621.714286 182.857143l0-109.714286q0-22.857143-16-38.857143t-38.857143-16l-109.714286 0q-22.857143 0-38.857143 16t-16 38.857143l0 109.714286q0 22.857143 16 38.857143t38.857143 16l109.714286 0q22.857143 0 38.857143-16t16-38.857143zm0 292.571429l0-109.714286q0-22.857143-16-38.857143t-38.857143-16l-109.714286 0q-22.857143 0-38.857143 16t-16 38.857143l0 109.714286q0 22.857143 16 38.857143t38.857143 16l109.714286 0q22.857143 0 38.857143-16t16-38.857143zm0 292.571429l0-109.714286q0-22.857143-16-38.857143t-38.857143-16l-109.714286 0q-22.857143 0-38.857143 16t-16 38.857143l0 109.714286q0 22.857143 16 38.857143t38.857143 16l109.714286 0q22.857143 0 38.857143-16t16-38.857143z"  horiz-adv-x="1024" />

    
    <glyph glyph-name="envelopeo" unicode="&#59089;" d="M950.857143 36.571429l0 438.857143q-18.285714-20.571429-39.428571-37.714286-153.142857-117.714286-243.428571-193.142857-29.142857-24.571429-47.428571-38.285714t-49.428571-27.714286-58.571429-14l-1.142857 0q-27.428571 0-58.571429 14t-49.428571 27.714286-47.428571 38.285714q-90.285714 75.428571-243.428571 193.142857-21.142857 17.142857-39.428571 37.714286l0-438.857143q0-7.428571 5.428571-12.857143t12.857143-5.428571l841.142857 0q7.428571 0 12.857143 5.428571t5.428571 12.857143zm0 600.571429l0 14 2.857143 7.428571-1.714286 7.142857-3.142857 5.142857-5.142857 4.285714-8 1.428571-841.142857 0q-7.428571 0-12.857143-5.428571t-5.428571-12.857143q0-96 84-162.285714 110.285714-86.857143 229.142857-181.142857 3.428571-2.857143 20-16.857143t26.285714-21.428571 25.428571-18 28.857143-15.714286 24.571429-5.142857l1.142857 0q11.428571 0 24.571429 5.142857t28.857143 15.714286 25.428571 18 26.285714 21.428571 20 16.857143q118.857143 94.285714 229.142857 181.142857 30.857143 24.571429 57.428571 66t26.571429 75.142857zm73.142857 21.142857l0-621.714286q0-37.714286-26.857143-64.571429t-64.571429-26.857143l-841.142857 0q-37.714286 0-64.571429 26.857143t-26.857143 64.571429l0 621.714286q0 37.714286 26.857143 64.571429t64.571429 26.857143l841.142857 0q37.714286 0 64.571429-26.857143t26.857143-64.571429z"  horiz-adv-x="1024" />

    
    <glyph glyph-name="envelope" unicode="&#59091;" d="M1024 490.285714l0-453.714286q0-37.714286-26.857143-64.571429t-64.571429-26.857143l-841.142857 0q-37.714286 0-64.571429 26.857143t-26.857143 64.571429l0 453.714286q25.142857-28 57.714286-49.714286 206.857143-140.571429 284-197.142857 32.571429-24 52.857143-37.428571t54-27.428571 62.857143-14l1.142857 0q29.142857 0 62.857143 14t54 27.428571 52.857143 37.428571q97.142857 70.285714 284.571429 197.142857 32.571429 22.285714 57.142857 49.714286zm0 168q0-45.142857-28-86.285714t-69.714286-70.285714q-214.857143-149.142857-267.428571-185.714286-5.714286-4-24.285714-17.428571t-30.857143-21.714286-29.714286-18.571429-32.857143-15.428571-28.571429-5.142857l-1.142857 0q-13.142857 0-28.571429 5.142857t-32.857143 15.428571-29.714286 18.571429-30.857143 21.714286-24.285714 17.428571q-52 36.571429-149.714286 104.285714t-117.142857 81.428571q-35.428571 24-66.857143 66t-31.428571 78q0 44.571429 23.714286 74.285714t67.714286 29.714286l841.142857 0q37.142857 0 64.285714-26.857143t27.142857-64.571429z"  horiz-adv-x="1024" />

    
    <glyph glyph-name="facebookofficial" unicode="&#59107;" d="M902.285714 822.857143q20 0 34.285714-14.285714t14.285714-34.285714l0-780.571429q0-20-14.285714-34.285714t-34.285714-14.285714l-223.428571 0 0 340 113.714286 0 17.142857 132.571429-130.857143 0 0 84.571429q0 32 13.428571 48t52.285714 16l69.714286 0.571429 0 118.285714q-36 5.142857-101.714286 5.142857-77.714286 0-124.285714-45.714286t-46.571429-129.142857l0-97.714286-114.285714 0 0-132.571429 114.285714 0 0-340-420 0q-20 0-34.285714 14.285714t-14.285714 34.285714l0 780.571429q0 20 14.285714 34.285714t34.285714 14.285714l780.571429 0z"  horiz-adv-x="1024" />

    
    <glyph glyph-name="facebooksquare" unicode="&#59108;" d="M786.285714 822.857143q68 0 116.285714-48.285714t48.285714-116.285714l0-548.571429q0-68-48.285714-116.285714t-116.285714-48.285714l-107.428571 0 0 340 113.714286 0 17.142857 132.571429-130.857143 0 0 84.571429q0 32 13.428571 48t52.285714 16l69.714286 0.571429 0 118.285714q-36 5.142857-101.714286 5.142857-77.714286 0-124.285714-45.714286t-46.571429-129.142857l0-97.714286-114.285714 0 0-132.571429 114.285714 0 0-340-304 0q-68 0-116.285714 48.285714t-48.285714 116.285714l0 548.571429q0 68 48.285714 116.285714t116.285714 48.285714l548.571429 0z"  horiz-adv-x="1024" />

    
    <glyph glyph-name="gear" unicode="&#59143;" d="M658.285714 384q0 60.571429-42.857143 103.428571t-103.428571 42.857143-103.428571-42.857143-42.857143-103.428571 42.857143-103.428571 103.428571-42.857143 103.428571 42.857143 42.857143 103.428571zm292.571429 62.285714l0-126.857143q0-6.857143-4.571429-13.142857t-11.428571-7.428571l-105.714286-16q-10.857143-30.857143-22.285714-52 20-28.571429 61.142857-78.857143 5.714286-6.857143 5.714286-14.285714t-5.142857-13.142857q-15.428571-21.142857-56.571429-61.714286t-53.714286-40.571429q-6.857143 0-14.857143 5.142857l-78.857143 61.714286q-25.142857-13.142857-52-21.714286-9.142857-77.714286-16.571429-106.285714-4-16-20.571429-16l-126.857143 0q-8 0-14 4.857143t-6.571429 12.285714l-16 105.142857q-28 9.142857-51.428571 21.142857l-80.571429-61.142857q-5.714286-5.142857-14.285714-5.142857-8 0-14.285714 6.285714-72 65.142857-94.285714 96-4 5.714286-4 13.142857 0 6.857143 4.571429 13.142857 8.571429 12 29.142857 38t30.857143 40.285714q-15.428571 28.571429-23.428571 56.571429l-104.571429 15.428571q-7.428571 1.142857-12 7.142857t-4.571429 13.428571l0 126.857143q0 6.857143 4.571429 13.142857t10.857143 7.428571l106.285714 16q8 26.285714 22.285714 52.571429-22.857143 32.571429-61.142857 78.857143-5.714286 6.857143-5.714286 13.714286 0 5.714286 5.142857 13.142857 14.857143 20.571429 56.285714 61.428571t54 40.857143q7.428571 0 14.857143-5.714286l78.857143-61.142857q25.142857 13.142857 52 21.714286 9.142857 77.714286 16.571429 106.285714 4 16 20.571429 16l126.857143 0q8 0 14-4.857143t6.571429-12.285714l16-105.142857q28-9.142857 51.428571-21.142857l81.142857 61.142857q5.142857 5.142857 13.714286 5.142857 7.428571 0 14.285714-5.714286 73.714286-68 94.285714-97.142857 4-4.571429 4-12.571429 0-6.857143-4.571429-13.142857-8.571429-12-29.142857-38t-30.857143-40.285714q14.857143-28.571429 23.428571-56l104.571429-16q7.428571-1.142857 12-7.142857t4.571429-13.428571z"  horiz-adv-x="1024" />

    
    <glyph glyph-name="githubsquare" unicode="&#59153;" d="M298.285714 123.428571q-4.571429-5.142857-11.428571 1.714286-7.428571 6.285714-2.285714 10.857143 4.571429 5.142857 11.428571-1.714286 6.857143-6.285714 2.285714-10.857143zm-24 34.857143q5.142857-6.857143 0-10.857143-4.571429-3.428571-9.714286 4t0 10.285714q5.142857 4 9.714286-3.428571zm-34.857143 34.285714q-2.857143-4-7.428571-1.142857-5.714286 2.857143-4 6.857143 1.714286 2.857143 7.428571 1.142857 5.714286-2.857143 4-6.857143zm17.714286-19.428571q-3.428571-4-9.142857 1.714286-5.142857 6.285714-1.142857 9.142857 3.428571 3.428571 9.142857-1.714286 5.142857-6.285714 1.142857-9.142857zm73.714286-64q-2.285714-6.857143-10.857143-3.428571-9.714286 2.285714-7.428571 8.571429t10.857143 4q9.142857-2.857143 7.428571-9.142857zm36-2.857143q0-6.285714-9.142857-6.285714-9.714286-1.142857-9.714286 6.285714 0 6.285714 9.142857 6.285714 9.714286 1.142857 9.714286-6.285714zm33.142857 5.714286q1.142857-5.714286-8-8t-10.285714 4.571429 8 8.571429q9.142857 1.142857 10.285714-5.142857zm550.857143 546.285714l0-548.571429q0-68-48.285714-116.285714t-116.285714-48.285714l-128 0q-9.142857 0-14 0.571429t-11.142857 2.857143-9.142857 8.285714-2.857143 15.714286l0 136.571429q0 55.428571-29.714286 81.142857 32.571429 3.428571 58.571429 10.285714t53.714286 22.285714 46.285714 38 30.285714 60 11.714286 86q0 69.142857-45.142857 117.714286 21.142857 52-4.571429 116.571429-16 5.142857-46.285714-6.285714t-52.571429-25.142857l-21.714286-13.714286q-53.142857 14.857143-109.714286 14.857143t-109.714286-14.857143q-9.142857 6.285714-24.285714 15.428571t-47.714286 22-49.142857 7.714286q-25.142857-64.571429-4-116.571429-45.142857-48.571429-45.142857-117.714286 0-48.571429 11.714286-85.714286t30-60 46-38.285714 53.714286-22.285714 58.571429-10.285714q-22.857143-20.571429-28-58.857143-12-5.714286-25.714286-8.571429t-32.571429-2.857143-37.428571 12.285714-31.714286 35.714286q-10.857143 18.285714-27.714286 29.714286t-28.285714 13.714286l-11.428571 1.714286q-12 0-16.571429-2.571429t-2.857143-6.571429 5.142857-8 7.428571-6.857143l4-2.857143q12.571429-5.714286 24.857143-21.714286t18-29.142857l5.714286-13.142857q7.428571-21.714286 25.142857-35.142857t38.285714-17.142857 39.714286-4 31.714286 2l13.142857 2.285714q0-21.714286 2.857143-58.857143t2.857143-38.857143q0-12.571429-6.285714-19.142857t-12.571429-7.428571-18.857143-0.857143l-128 0q-68 0-116.285714 48.285714t-48.285714 116.285714l0 548.571429q0 68 48.285714 116.285714t116.285714 48.285714l548.571429 0q68 0 116.285714-48.285714t48.285714-116.285714z"  horiz-adv-x="1024" />

    
    <glyph glyph-name="github" unicode="&#59154;" d="M950.857143 384q0-143.428571-83.714286-258t-216.285714-158.571429q-15.428571-2.857143-22.571429 4t-7.142857 17.142857l0 120.571429q0 55.428571-29.714286 81.142857 32.571429 3.428571 58.571429 10.285714t53.714286 22.285714 46.285714 38 30.285714 60 11.714286 86q0 69.142857-45.142857 117.714286 21.142857 52-4.571429 116.571429-16 5.142857-46.285714-6.285714t-52.571429-25.142857l-21.714286-13.714286q-53.142857 14.857143-109.714286 14.857143t-109.714286-14.857143q-9.142857 6.285714-24.285714 15.428571t-47.714286 22-49.142857 7.714286q-25.142857-64.571429-4-116.571429-45.142857-48.571429-45.142857-117.714286 0-48.571429 11.714286-85.714286t30-60 46-38.285714 53.714286-22.285714 58.571429-10.285714q-22.857143-20.571429-28-58.857143-12-5.714286-25.714286-8.571429t-32.571429-2.857143-37.428571 12.285714-31.714286 35.714286q-10.857143 18.285714-27.714286 29.714286t-28.285714 13.714286l-11.428571 1.714286q-12 0-16.571429-2.571429t-2.857143-6.571429 5.142857-8 7.428571-6.857143l4-2.857143q12.571429-5.714286 24.857143-21.714286t18-29.142857l5.714286-13.142857q7.428571-21.714286 25.142857-35.142857t38.285714-17.142857 39.714286-4 31.714286 2l13.142857 2.285714q0-21.714286 2.857143-50.857143t2.857143-30.857143q0-10.285714-7.428571-17.142857t-22.857143-4q-132.571429 44-216.285714 158.571429t-83.714286 258q0 119.428571 58.857143 220.285714t159.714286 159.714286 220.285714 58.857143 220.285714-58.857143 159.714286-159.714286 58.857143-220.285714z"  horiz-adv-x="1024" />

    
    <glyph glyph-name="jsfiddle" unicode="&#59218;" d="M1028.571429 454.857143q63.428571-26.285714 102.571429-83.142857t39.142857-126.571429q0-93.714286-67.428571-160.285714t-162.857143-66.571429q-2.285714 0-6.571429-2.857143t-6-2.857143l-695.428571 0q-97.142857 5.714286-164.571429 71.714286t-67.428571 160.285714q0 62.857143 31.428571 116t84 84q-6.857143 22.285714-6.857143 46.857143 0 65.714286 46.857143 112t113.714286 46.285714q54.285714 0 98.285714-33.142857 42.857143 88 127.142857 141.714286t186.571429 53.714286q94.857143 0 174.857143-46t126.571429-124.857143 46.571429-172q0-3.428571 2.857143-10.285714t2.857143-10.285714zm-761.142857-152q0-69.714286 48-110.285714t118.857143-40.571429q78.285714 0 137.142857 56.571429-9.142857 11.428571-27.142857 32.285714t-24.857143 28.857143q-38.285714-37.142857-82.285714-37.142857-31.428571 0-53.428571 19.142857t-22 50q0 30.285714 22 49.714286t52.285714 19.428571q25.142857 0 48.285714-12t41.714286-31.428571 37.142857-42.857143 39.428571-46.857143 44-42.857143 55.428571-31.428571 69.428571-12q69.142857 0 116.857143 40.857143t47.714286 108.857143q0 69.142857-48 109.714286t-118.285714 40.571429q-81.714286 0-137.714286-55.428571 8-9.142857 16.857143-19.428571t19.714286-22.857143 16.571429-19.428571q37.714286 36.571429 81.142857 36.571429 29.714286 0 52.571429-18.857143t22.857143-48q0-32.571429-21.142857-52.285714t-53.714286-19.714286q-24.571429 0-47.142857 12t-41.142857 31.428571-37.428571 42.857143-39.714286 46.857143-44.285714 42.857143-55.142857 31.428571-67.714286 12q-69.714286 0-118.285714-40.285714t-48.571429-108.285714z"  horiz-adv-x="1171" />

    
    <glyph glyph-name="link" unicode="&#59238;" d="M868.571429 201.142857q0 22.857143-16 38.857143l-118.857143 118.857143q-16 16-38.857143 16-24 0-41.142857-18.285714 1.714286-1.714286 10.857143-10.571429t12.285714-12.285714 8.571429-10.857143 7.428571-14.571429 2-15.714286q0-22.857143-16-38.857143t-38.857143-16q-8.571429 0-15.714286 2t-14.571429 7.428571-10.857143 8.571429-12.285714 12.285714-10.571429 10.857143q-18.857143-17.714286-18.857143-41.714286 0-22.857143 16-38.857143l117.714286-118.285714q15.428571-15.428571 38.857143-15.428571 22.857143 0 38.857143 14.857143l84 83.428571q16 16 16 38.285714zm-401.714286 402.857143q0 22.857143-16 38.857143l-117.714286 118.285714q-16 16-38.857143 16-22.285714 0-38.857143-15.428571l-84-83.428571q-16-16-16-38.285714 0-22.857143 16-38.857143l118.857143-118.857143q15.428571-15.428571 38.857143-15.428571 24 0 41.142857 17.714286-1.714286 1.714286-10.857143 10.571429t-12.285714 12.285714-8.571429 10.857143-7.428571 14.571429-2 15.714286q0 22.857143 16 38.857143t38.857143 16q8.571429 0 15.714286-2t14.571429-7.428571 10.857143-8.571429 12.285714-12.285714 10.571429-10.857143q18.857143 17.714286 18.857143 41.714286zm511.428571-402.857143q0-68.571429-48.571429-116l-84-83.428571q-47.428571-47.428571-116-47.428571-69.142857 0-116.571429 48.571429l-117.714286 118.285714q-47.428571 47.428571-47.428571 116 0 70.285714 50.285714 119.428571l-50.285714 50.285714q-49.142857-50.285714-118.857143-50.285714-68.571429 0-116.571429 48l-118.857143 118.857143q-48 48-48 116.571429t48.571429 116l84 83.428571q47.428571 47.428571 116 47.428571 69.142857 0 116.571429-48.571429l117.714286-118.285714q47.428571-47.428571 47.428571-116 0-70.285714-50.285714-119.428571l50.285714-50.285714q49.142857 50.285714 118.857143 50.285714 68.571429 0 116.571429-48l118.857143-118.857143q48-48 48-116.571429z"  horiz-adv-x="1024" />

    
    <glyph glyph-name="linkedin" unicode="&#59240;" d="M272.571429 538.857143l0-566.285714-188.571429 0 0 566.285714 188.571429 0zm12 174.857143q0.571429-41.714286-28.857143-69.714286t-77.428571-28l-1.142857 0q-46.857143 0-75.428571 28t-28.571429 69.714286q0 42.285714 29.428571 70t76.857143 27.714286 76-27.714286 29.142857-70zm666.285714-416.571429l0-324.571429-188 0 0 302.857143q0 60-23.142857 94t-72.285714 34q-36 0-60.285714-19.714286t-36.285714-48.857143q-6.285714-17.142857-6.285714-46.285714l0-316-188 0q1.142857 228 1.142857 369.714286t-0.571429 169.142857l-0.571429 27.428571 188 0 0-82.285714-1.142857 0q11.428571 18.285714 23.428571 32t32.285714 29.714286 49.714286 24.857143 65.428571 8.857143q97.714286 0 157.142857-64.857143t59.428571-190z"  horiz-adv-x="1024" />

    
    <glyph glyph-name="lock" unicode="&#59247;" d="M365.714286 457.142857l292.571429 0 0 109.714286q0 60.571429-42.857143 103.428571t-103.428571 42.857143-103.428571-42.857143-42.857143-103.428571l0-109.714286zm475.428571-54.857143l0-329.142857q0-22.857143-16-38.857143t-38.857143-16l-548.571429 0q-22.857143 0-38.857143 16t-16 38.857143l0 329.142857q0 22.857143 16 38.857143t38.857143 16l18.285714 0 0 109.714286q0 105.142857 75.428571 180.571429t180.571429 75.428571 180.571429-75.428571 75.428571-180.571429l0-109.714286 18.285714 0q22.857143 0 38.857143-16t16-38.857143z"  horiz-adv-x="1024" />

    
    <glyph glyph-name="photo" unicode="&#59320;" d="M365.714286 566.857143q0-45.714286-32-77.714286t-77.714286-32-77.714286 32-32 77.714286 32 77.714286 77.714286 32 77.714286-32 32-77.714286zm585.142857-219.428571l0-256-804.571429 0 0 109.714286 182.857143 182.857143 91.428571-91.428571 292.571429 292.571429zm54.857143 402.285714l-914.285714 0q-7.428571 0-12.857143-5.428571t-5.428571-12.857143l0-694.857143q0-7.428571 5.428571-12.857143t12.857143-5.428571l914.285714 0q7.428571 0 12.857143 5.428571t5.428571 12.857143l0 694.857143q0 7.428571-5.428571 12.857143t-12.857143 5.428571zm91.428571-18.285714l0-694.857143q0-37.714286-26.857143-64.571429t-64.571429-26.857143l-914.285714 0q-37.714286 0-64.571429 26.857143t-26.857143 64.571429l0 694.857143q0 37.714286 26.857143 64.571429t64.571429 26.857143l914.285714 0q37.714286 0 64.571429-26.857143t26.857143-64.571429z"  horiz-adv-x="1098" />

    
    <glyph glyph-name="qq" unicode="&#59341;" d="M154.285714 435.428571q-4.571429 10.857143-4.571429 29.714286 0 11.428571 6.285714 28t13.714286 25.714286q-0.571429 12.571429 4.285714 30.285714t12.857143 24.571429q0 79.428571 52.857143 164.857143t124.285714 119.714286q79.428571 37.714286 185.142857 37.714286 76 0 152-31.428571 28-12 51.428571-27.428571t40.571429-32 31.428571-38.857143 24-42.285714 18.571429-48.285714 14.571429-51.142857 12.571429-56l0.571429-2.857143q31.428571-47.428571 31.428571-85.714286 0-8-5.142857-22.857143t-5.142857-21.714286q0-0.571429 0.857143-2t2-2.857143 1.142857-2q44-65.142857 68.857143-122.571429t24.857143-119.142857q0-24.571429-11.142857-57.142857t-31.714286-32.571429q-5.142857 0-11.142857 4.285714t-10.857143 10-10.857143 14.857143-9.142857 15.142857-7.714286 14.857143-5.142857 10q-0.571429 0.571429-1.714286 0.571429l-2.857143-2.285714q-33.714286-88-75.428571-127.428571 11.428571-11.428571 35.142857-22t39.428571-23.714286 20.285714-37.142857q-1.142857-2.285714-2.285714-9.142857t-4-10.285714q-36.571429-55.428571-172.571429-55.428571-30.285714 0-63.142857 5.142857t-56 11.428571-59.714286 17.142857q-8.571429 2.857143-13.142857 4-8 2.285714-26.285714 2.571429t-22.857143 0.857143q-23.428571-25.714286-72.857143-37.142857t-96.285714-11.428571q-20 0-39.428571 0.857143t-53.142857 5.142857-57.714286 11.714286-42.571429 22.857143-18.571429 36.571429q0 22.857143 5.714286 34t23.428571 27.714286q6.285714 1.142857 23.142857 7.428571t28.285714 6.857143q2.285714 0 8 1.142857 1.142857 1.142857 1.142857 2.285714l-1.142857 1.714286q-27.428571 6.285714-61.714286 60.285714t-41.714286 89.428571l-2.857143 1.714286q-2.285714 0-6.857143-11.428571-10.285714-23.428571-31.142857-42.571429t-44.285714-21.428571l-0.571429 0q-2.285714 0-3.428571 2.571429t-2.857143 3.142857q-13.142857 30.857143-13.142857 57.142857 0 157.142857 144 266.285714z"  horiz-adv-x="1024" />

    
    <glyph glyph-name="quoteleft" unicode="&#59345;" d="M475.428571 347.428571l0-219.428571q0-45.714286-32-77.714286t-77.714286-32l-219.428571 0q-45.714286 0-77.714286 32t-32 77.714286l0 402.285714q0 59.428571 23.142857 113.428571t62.571429 93.428571 93.428571 62.571429 113.428571 23.142857l36.571429 0q14.857143 0 25.714286-10.857143t10.857143-25.714286l0-73.142857q0-14.857143-10.857143-25.714286t-25.714286-10.857143l-36.571429 0q-60.571429 0-103.428571-42.857143t-42.857143-103.428571l0-18.285714q0-22.857143 16-38.857143t38.857143-16l128 0q45.714286 0 77.714286-32t32-77.714286zm512 0l0-219.428571q0-45.714286-32-77.714286t-77.714286-32l-219.428571 0q-45.714286 0-77.714286 32t-32 77.714286l0 402.285714q0 59.428571 23.142857 113.428571t62.571429 93.428571 93.428571 62.571429 113.428571 23.142857l36.571429 0q14.857143 0 25.714286-10.857143t10.857143-25.714286l0-73.142857q0-14.857143-10.857143-25.714286t-25.714286-10.857143l-36.571429 0q-60.571429 0-103.428571-42.857143t-42.857143-103.428571l0-18.285714q0-22.857143 16-38.857143t38.857143-16l128 0q45.714286 0 77.714286-32t32-77.714286z"  horiz-adv-x="1024" />

    
    <glyph glyph-name="quoteright" unicode="&#59346;" d="M475.428571 713.142857l0-402.285714q0-59.428571-23.142857-113.428571t-62.571429-93.428571-93.428571-62.571429-113.428571-23.142857l-36.571429 0q-14.857143 0-25.714286 10.857143t-10.857143 25.714286l0 73.142857q0 14.857143 10.857143 25.714286t25.714286 10.857143l36.571429 0q60.571429 0 103.428571 42.857143t42.857143 103.428571l0 18.285714q0 22.857143-16 38.857143t-38.857143 16l-128 0q-45.714286 0-77.714286 32t-32 77.714286l0 219.428571q0 45.714286 32 77.714286t77.714286 32l219.428571 0q45.714286 0 77.714286-32t32-77.714286zm512 0l0-402.285714q0-59.428571-23.142857-113.428571t-62.571429-93.428571-93.428571-62.571429-113.428571-23.142857l-36.571429 0q-14.857143 0-25.714286 10.857143t-10.857143 25.714286l0 73.142857q0 14.857143 10.857143 25.714286t25.714286 10.857143l36.571429 0q60.571429 0 103.428571 42.857143t42.857143 103.428571l0 18.285714q0 22.857143-16 38.857143t-38.857143 16l-128 0q-45.714286 0-77.714286 32t-32 77.714286l0 219.428571q0 45.714286 32 77.714286t77.714286 32l219.428571 0q45.714286 0 77.714286-32t32-77.714286z"  horiz-adv-x="1024" />

    
    <glyph glyph-name="refresh" unicode="&#59354;" d="M936.571429 292.571429q0-2.857143-0.571429-4-36.571429-153.142857-153.142857-248.285714t-273.142857-95.142857q-83.428571 0-161.428571 31.428571t-139.142857 89.714286l-73.714286-73.714286q-10.857143-10.857143-25.714286-10.857143t-25.714286 10.857143-10.857143 25.714286l0 256q0 14.857143 10.857143 25.714286t25.714286 10.857143l256 0q14.857143 0 25.714286-10.857143t10.857143-25.714286-10.857143-25.714286l-78.285714-78.285714q40.571429-37.714286 92-58.285714t106.857143-20.571429q76.571429 0 142.857143 37.142857t106.285714 102.285714q6.285714 9.714286 30.285714 66.857143 4.571429 13.142857 17.142857 13.142857l109.714286 0q7.428571 0 12.857143-5.428571t5.428571-12.857143zm14.285714 457.142857l0-256q0-14.857143-10.857143-25.714286t-25.714286-10.857143l-256 0q-14.857143 0-25.714286 10.857143t-10.857143 25.714286 10.857143 25.714286l78.857143 78.857143q-84.571429 78.285714-199.428571 78.285714-76.571429 0-142.857143-37.142857t-106.285714-102.285714q-6.285714-9.714286-30.285714-66.857143-4.571429-13.142857-17.142857-13.142857l-113.714286 0q-7.428571 0-12.857143 5.428571t-5.428571 12.857143l0 4q37.142857 153.142857 154.285714 248.285714t274.285714 95.142857q83.428571 0 162.285714-31.714286t140-89.428571l74.285714 73.714286q10.857143 10.857143 25.714286 10.857143t25.714286-10.857143 10.857143-25.714286z"  horiz-adv-x="1024" />

    
    <glyph glyph-name="reorder" unicode="&#59358;" d="M950.857143 128l0-73.142857q0-14.857143-10.857143-25.714286t-25.714286-10.857143l-804.571429 0q-14.857143 0-25.714286 10.857143t-10.857143 25.714286l0 73.142857q0 14.857143 10.857143 25.714286t25.714286 10.857143l804.571429 0q14.857143 0 25.714286-10.857143t10.857143-25.714286zm0 292.571429l0-73.142857q0-14.857143-10.857143-25.714286t-25.714286-10.857143l-804.571429 0q-14.857143 0-25.714286 10.857143t-10.857143 25.714286l0 73.142857q0 14.857143 10.857143 25.714286t25.714286 10.857143l804.571429 0q14.857143 0 25.714286-10.857143t10.857143-25.714286zm0 292.571429l0-73.142857q0-14.857143-10.857143-25.714286t-25.714286-10.857143l-804.571429 0q-14.857143 0-25.714286 10.857143t-10.857143 25.714286l0 73.142857q0 14.857143 10.857143 25.714286t25.714286 10.857143l804.571429 0q14.857143 0 25.714286-10.857143t10.857143-25.714286z"  horiz-adv-x="1024" />

    
    <glyph glyph-name="rss" unicode="&#59370;" d="M329.142857 128q0-45.714286-32-77.714286t-77.714286-32-77.714286 32-32 77.714286 32 77.714286 77.714286 32 77.714286-32 32-77.714286zm292.571429-70.285714q1.142857-16-9.714286-27.428571-10.285714-12-26.857143-12l-77.142857 0q-14.285714 0-24.571429 9.428571t-11.428571 23.714286q-12.571429 130.857143-105.428571 223.714286t-223.714286 105.428571q-14.285714 1.142857-23.714286 11.428571t-9.428571 24.571429l0 77.142857q0 16.571429 12 26.857143 9.714286 9.714286 24.571429 9.714286l2.857143 0q91.428571-7.428571 174.857143-46t148-103.714286q65.142857-64.571429 103.714286-148t46-174.857143zm292.571429-1.142857q1.142857-15.428571-10.285714-26.857143-10.285714-11.428571-26.285714-11.428571l-81.714286 0q-14.857143 0-25.428571 10t-11.142857 24.285714q-6.857143 122.857143-57.714286 233.428571t-132.285714 192-192 132.285714-233.428571 58.285714q-14.285714 0.571429-24.285714 11.142857t-10 24.857143l0 81.714286q0 16 11.428571 26.285714 10.285714 10.285714 25.142857 10.285714l1.714286 0q149.714286-7.428571 286.571429-68.571429t243.142857-168q106.857143-106.285714 168-243.142857t68.571429-286.571429z"  horiz-adv-x="1024" />

    
    <glyph glyph-name="search" unicode="&#59380;" d="M694.857143 420.571429q0 105.714286-75.142857 180.857143t-180.857143 75.142857-180.857143-75.142857-75.142857-180.857143 75.142857-180.857143 180.857143-75.142857 180.857143 75.142857 75.142857 180.857143zm292.571429-475.428571q0-29.714286-21.714286-51.428571t-51.428571-21.714286q-30.857143 0-51.428571 21.714286l-196 195.428571q-102.285714-70.857143-228-70.857143-81.714286 0-156.285714 31.714286t-128.571429 85.714286-85.714286 128.571429-31.714286 156.285714 31.714286 156.285714 85.714286 128.571429 128.571429 85.714286 156.285714 31.714286 156.285714-31.714286 128.571429-85.714286 85.714286-128.571429 31.714286-156.285714q0-125.714286-70.857143-228l196-196q21.142857-21.142857 21.142857-51.428571z"  horiz-adv-x="1024" />

    
    <glyph glyph-name="staro" unicode="&#59434;" d="M686.285714 322.285714l174.857143 169.714286-241.142857 35.428571-108 218.285714-108-218.285714-241.142857-35.428571 174.857143-169.714286-41.714286-240.571429 216 113.714286 215.428571-113.714286zm301.142857 204q0-12.571429-14.857143-27.428571l-207.428571-202.285714 49.142857-285.714286q0.571429-4 0.571429-11.428571 0-28.571429-23.428571-28.571429-10.857143 0-22.857143 6.857143l-256.571429 134.857143-256.571429-134.857143q-12.571429-6.857143-22.857143-6.857143-12 0-18 8.285714t-6 20.285714q0 3.428571 1.142857 11.428571l49.142857 285.714286-208 202.285714q-14.285714 15.428571-14.285714 27.428571 0 21.142857 32 26.285714l286.857143 41.714286 128.571429 260q10.857143 23.428571 28 23.428571t28-23.428571l128.571429-260 286.857143-41.714286q32-5.142857 32-26.285714z"  horiz-adv-x="1024" />

    
    <glyph glyph-name="star" unicode="&#59435;" d="M987.428571 526.285714q0-12.571429-14.857143-27.428571l-207.428571-202.285714 49.142857-285.714286q0.571429-4 0.571429-11.428571 0-12-6-20.285714t-17.428571-8.285714q-10.857143 0-22.857143 6.857143l-256.571429 134.857143-256.571429-134.857143q-12.571429-6.857143-22.857143-6.857143-12 0-18 8.285714t-6 20.285714q0 3.428571 1.142857 11.428571l49.142857 285.714286-208 202.285714q-14.285714 15.428571-14.285714 27.428571 0 21.142857 32 26.285714l286.857143 41.714286 128.571429 260q10.857143 23.428571 28 23.428571t28-23.428571l128.571429-260 286.857143-41.714286q32-5.142857 32-26.285714z"  horiz-adv-x="1024" />

    
    <glyph glyph-name="tags" unicode="&#59460;" d="M256 640q0 30.285714-21.428571 51.714286t-51.714286 21.428571-51.714286-21.428571-21.428571-51.714286 21.428571-51.714286 51.714286-21.428571 51.714286 21.428571 21.428571 51.714286zm609.714286-329.142857q0-30.285714-21.142857-51.428571l-280.571429-281.142857q-22.285714-21.142857-52-21.142857-30.285714 0-51.428571 21.142857l-408.571429 409.142857q-21.714286 21.142857-36.857143 57.714286t-15.142857 66.857143l0 237.714286q0 29.714286 21.714286 51.428571t51.428571 21.714286l237.714286 0q30.285714 0 66.857143-15.142857t58.285714-36.857143l408.571429-408q21.142857-22.285714 21.142857-52zm219.428571 0q0-30.285714-21.142857-51.428571l-280.571429-281.142857q-22.285714-21.142857-52-21.142857-20.571429 0-33.714286 8t-30.285714 25.714286l268.571429 268.571429q21.142857 21.142857 21.142857 51.428571 0 29.714286-21.142857 52l-408.571429 408q-21.714286 21.714286-58.285714 36.857143t-66.857143 15.142857l128 0q30.285714 0 66.857143-15.142857t58.285714-36.857143l408.571429-408q21.142857-22.285714 21.142857-52z"  horiz-adv-x="1086" />

    
    <glyph glyph-name="thumbsoup" unicode="&#59474;" d="M219.428571 128q0 14.857143-10.857143 25.714286t-25.714286 10.857143-25.714286-10.857143-10.857143-25.714286 10.857143-25.714286 25.714286-10.857143 25.714286 10.857143 10.857143 25.714286zm658.285714 329.142857q0 29.142857-22.285714 51.142857t-50.857143 22l-201.142857 0q0 33.142857 27.428571 91.142857t27.428571 91.714286q0 56-18.285714 82.857143t-73.142857 26.857143q-14.857143-14.857143-21.714286-48.571429t-17.428571-71.714286-34-62.571429q-12.571429-13.142857-44-52-2.285714-2.857143-13.142857-17.142857t-18-23.428571-19.714286-24.285714-22.857143-25.142857-22-20.285714-22.857143-15.428571-20.285714-5.142857l-18.285714 0 0-365.714286 18.285714 0q7.428571 0 18-1.714286t18.857143-3.714286 21.714286-6.285714 20-6.571429 20.285714-7.142857 16.571429-6q120.571429-41.714286 195.428571-41.714286l69.142857 0q109.714286 0 109.714286 95.428571 0 14.857143-2.857143 32 17.142857 9.142857 27.142857 30t10 42-10.285714 39.428571q30.285714 28.571429 30.285714 68 0 14.285714-5.714286 31.714286t-14.285714 27.142857q18.285714 0.571429 30.571429 26.857143t12.285714 46.285714zm73.142857 0.571429q0-50.857143-28-93.142857 5.142857-18.857143 5.142857-39.428571 0-44-21.714286-82.285714 1.714286-12 1.714286-24.571429 0-57.714286-34.285714-101.714286 0.571429-79.428571-48.571429-125.428571t-129.714286-46l-73.714286 0q-54.857143 0-108.285714 12.857143t-123.714286 37.428571q-66.285714 22.857143-78.857143 22.857143l-164.571429 0q-30.285714 0-51.714286 21.428571t-21.428571 51.714286l0 365.714286q0 30.285714 21.428571 51.714286t51.714286 21.428571l156.571429 0q20.571429 13.714286 78.285714 88.571429 33.142857 42.857143 61.142857 73.142857 13.714286 14.285714 20.285714 48.857143t17.428571 72.285714 35.428571 61.714286q22.285714 21.142857 51.428571 21.142857 48 0 86.285714-18.571429t58.285714-58 20-106.285714q0-53.142857-27.428571-109.714286l100.571429 0q59.428571 0 102.857143-43.428571t43.428571-102.285714z"  horiz-adv-x="1024" />

    
    <glyph glyph-name="thumbsup" unicode="&#59475;" d="M182.857143 128q0 14.857143-10.857143 25.714286t-25.714286 10.857143q-15.428571 0-26-10.857143t-10.571429-25.714286q0-15.428571 10.571429-26t26-10.571429q14.857143 0 25.714286 10.571429t10.857143 26zm91.428571 292.571429l0-365.714286q0-14.857143-10.857143-25.714286t-25.714286-10.857143l-164.571429 0q-14.857143 0-25.714286 10.857143t-10.857143 25.714286l0 365.714286q0 14.857143 10.857143 25.714286t25.714286 10.857143l164.571429 0q14.857143 0 25.714286-10.857143t10.857143-25.714286zm676.571429 0q0-49.142857-31.428571-85.142857 8.571429-25.142857 8.571429-43.428571 1.714286-43.428571-24.571429-78.285714 9.714286-32 0-66.857143-8.571429-32.571429-30.857143-53.714286 5.142857-64-28-103.428571-36.571429-43.428571-112.571429-44.571429l-73.714286 0q-37.714286 0-82.285714 8.857143t-69.428571 16.571429-68.857143 22.571429q-70.285714 24.571429-90.285714 25.142857-14.857143 0.571429-25.714286 11.142857t-10.857143 25.428571l0 366.285714q0 14.285714 10.285714 24.857143t24.571429 11.714286q13.714286 1.142857 43.428571 33.714286t57.714286 69.142857q38.857143 49.714286 57.714286 68.571429 10.285714 10.285714 17.714286 27.428571t10 27.714286 7.714286 34.571429q4 22.285714 7.142857 34.857143t11.142857 29.714286 19.428571 28.571429q10.857143 10.857143 25.714286 10.857143 26.285714 0 47.142857-6t34.285714-14.857143 22.857143-23.142857 13.714286-25.714286 6.857143-28.571429 2.857143-25.714286 2.857143-22.285714q0-21.714286-5.428571-43.428571t-10.857143-34.285714-15.714286-32q-1.714286-3.428571-5.714286-10.285714t-6.285714-12.571429-4.571429-13.714286l158.285714 0q44.571429 0 77.142857-32.571429t32.571429-77.142857z"  horiz-adv-x="1024" />

    
    <glyph glyph-name="toggleoff" unicode="&#59483;" d="M658.285714 384q0 59.428571-23.142857 113.428571t-62.571429 93.428571-93.428571 62.571429-113.428571 23.142857-113.428571-23.142857-93.428571-62.571429-62.571429-93.428571-23.142857-113.428571 23.142857-113.428571 62.571429-93.428571 93.428571-62.571429 113.428571-23.142857 113.428571 23.142857 93.428571 62.571429 62.571429 93.428571 23.142857 113.428571zm438.857143 0q0 59.428571-23.142857 113.428571t-62.571429 93.428571-93.428571 62.571429-113.428571 23.142857l-220.571429 0q68-51.428571 107.714286-128t39.714286-164.571429-39.714286-164.571429-107.714286-128l220.571429 0q59.428571 0 113.428571 23.142857t93.428571 62.571429 62.571429 93.428571 23.142857 113.428571zm73.142857 0q0-74.285714-29.142857-142t-78-116.571429-116.571429-78-142-29.142857l-438.857143 0q-74.285714 0-142 29.142857t-116.571429 78-78 116.571429-29.142857 142 29.142857 142 78 116.571429 116.571429 78 142 29.142857l438.857143 0q74.285714 0 142-29.142857t116.571429-78 78-116.571429 29.142857-142z"  horiz-adv-x="1171" />

    
    <glyph glyph-name="toggleon" unicode="&#59484;" d="M0 384q0 74.285714 29.142857 142t78 116.571429 116.571429 78 142 29.142857l438.857143 0q74.285714 0 142-29.142857t116.571429-78 78-116.571429 29.142857-142-29.142857-142-78-116.571429-116.571429-78-142-29.142857l-438.857143 0q-74.285714 0-142 29.142857t-116.571429 78-78 116.571429-29.142857 142zm804.571429-292.571429q59.428571 0 113.428571 23.142857t93.428571 62.571429 62.571429 93.428571 23.142857 113.428571-23.142857 113.428571-62.571429 93.428571-93.428571 62.571429-113.428571 23.142857-113.428571-23.142857-93.428571-62.571429-62.571429-93.428571-23.142857-113.428571 23.142857-113.428571 62.571429-93.428571 93.428571-62.571429 113.428571-23.142857z"  horiz-adv-x="1171" />

    
    <glyph glyph-name="twitter" unicode="&#59506;" d="M962.285714 662.857143q-38.285714-56-92.571429-95.428571 0.571429-8 0.571429-24 0-74.285714-21.714286-148.285714t-66-142-105.428571-120.285714-147.428571-83.428571-184.571429-31.142857q-154.857143 0-283.428571 82.857143 20-2.285714 44.571429-2.285714 128.571429 0 229.142857 78.857143-60 1.142857-107.428571 36.857143t-65.142857 91.142857q18.857143-2.857143 34.857143-2.857143 24.571429 0 48.571429 6.285714-64 13.142857-106 63.714286t-42 117.428571l0 2.285714q38.857143-21.714286 83.428571-23.428571-37.714286 25.142857-60 65.714286t-22.285714 88q0 50.285714 25.142857 93.142857 69.142857-85.142857 168.285714-136.285714t212.285714-56.857143q-4.571429 21.714286-4.571429 42.285714 0 76.571429 54 130.571429t130.571429 54q80 0 134.857143-58.285714 62.285714 12 117.142857 44.571429-21.142857-65.714286-81.142857-101.714286 53.142857 5.714286 106.285714 28.571429z"  horiz-adv-x="1024" />

    
    <glyph glyph-name="wechat" unicode="&#59537;" d="M331.428571 632.571429q0 23.428571-14.285714 37.714286t-37.714286 14.285714q-24.571429 0-43.428571-14.571429t-18.857143-37.428571q0-22.285714 18.857143-36.857143t43.428571-14.571429q23.428571 0 37.714286 14t14.285714 37.428571zm424.571429-289.714286q0 16-14.571429 28.571429t-37.428571 12.571429q-15.428571 0-28.285714-12.857143t-12.857143-28.285714q0-16 12.857143-28.857143t28.285714-12.857143q22.857143 0 37.428571 12.571429t14.571429 29.142857zm-134.857143 289.714286q0 23.428571-14 37.714286t-37.428571 14.285714q-24.571429 0-43.428571-14.571429t-18.857143-37.428571q0-22.285714 18.857143-36.857143t43.428571-14.571429q23.428571 0 37.428571 14t14 37.428571zm362.857143-289.714286q0 16-14.857143 28.571429t-37.142857 12.571429q-15.428571 0-28.285714-12.857143t-12.857143-28.285714q0-16 12.857143-28.857143t28.285714-12.857143q22.285714 0 37.142857 12.571429t14.857143 29.142857zm-152 226.857143q-17.714286 2.285714-40 2.285714-96.571429 0-177.714286-44t-127.714286-119.142857-46.571429-164.285714q0-44.571429 13.142857-86.857143-20-1.714286-38.857143-1.714286-14.857143 0-28.571429 0.857143t-31.428571 3.714286-25.428571 4-31.142857 6-28.571429 6l-144.571429-72.571429 41.142857 124.571429q-165.714286 116-165.714286 280 0 96.571429 55.714286 177.714286t150.857143 127.714286 207.714286 46.571429q100.571429 0 190-37.714286t149.714286-104.285714 78-148.857143zm338.285714-320.571429q0-66.857143-39.142857-127.714286t-106-110.571429l31.428571-103.428571-113.714286 62.285714q-85.714286-21.142857-124.571429-21.142857-96.571429 0-177.714286 40.285714t-127.714286 109.428571-46.571429 150.857143 46.571429 150.857143 127.714286 109.428571 177.714286 40.285714q92 0 173.142857-40.285714t130-109.714286 48.857143-150.571429z"  horiz-adv-x="1171" />

    
    <glyph glyph-name="weibo" unicode="&#59538;" d="M385.714286 162.285714q12 19.428571 6.285714 39.428571t-25.714286 28.571429q-19.428571 8-41.714286 0.571429t-34.285714-26.285714q-12.571429-19.428571-7.428571-39.142857t24.571429-28.857143 42.571429-1.428571 35.714286 27.142857zm53.714286 69.142857q4.571429 7.428571 2 15.142857t-10 10.571429q-8 2.857143-16.285714-2.857143t-12.285714-10.571429q-9.714286-17.714286 7.428571-25.714286 8-2.857143 16.571429-2.857143t12.571429 10.571429zm99.428571-61.142857q-25.714286-58.285714-90.285714-85.714286t-128-6.857143q-61.142857 19.428571-84.285714 72.285714t3.714286 107.142857q26.857143 53.142857 86.571429 79.428571t120.285714 10.857143q63.428571-16.571429 90.571429-68.285714t1.428571-108.857143zm178.285714 91.428571q-5.142857 54.857143-50.857143 97.142857t-119.142857 62.285714-156.857143 12q-127.428571-13.142857-211.142857-80.857143t-75.714286-151.142857q5.142857-54.857143 50.857143-97.142857t119.142857-62.285714 156.857143-12q127.428571 13.142857 211.142857 80.857143t75.714286 151.142857zm176-2.285714q0-38.857143-21.142857-79.714286t-62.285714-78.285714-96.285714-67.142857-129.142857-47.428571-154.571429-17.714286-157.142857 19.142857-137.428571 53.142857-98 86.285714-37.142857 114q0 65.714286 39.714286 140t112.857143 147.428571q96.571429 96.571429 195.142857 134.857143t140.857143-4q37.142857-36.571429 11.428571-119.428571-2.285714-8-0.571429-11.428571t5.714286-4 8.285714-2.857143 7.714286 2l3.428571 1.142857q79.428571 33.714286 140.571429 33.714286t87.428571-34.857143q25.714286-36 0-101.714286-1.142857-7.428571-2.571429-11.428571t2.571429-7.142857 6.857143-4.285714 9.714286-3.428571q32.571429-10.285714 58.857143-26.857143t45.714286-46.571429 19.428571-66.571429zm-42.285714 356.571429q24-26.857143 31.142857-62t-3.714286-67.142857q-4.571429-13.142857-16.857143-19.428571t-25.428571-2.285714q-13.142857 4.571429-19.428571 16.857143t-2.285714 25.428571q11.428571 36-13.714286 63.428571t-61.142857 20q-13.714286-2.857143-25.714286 4.571429t-14.285714 21.142857q-2.857143 13.714286 4.571429 25.428571t21.142857 14.571429q34.285714 7.428571 68-3.142857t57.714286-37.428571zm103.428571 93.142857q49.714286-54.857143 64.285714-127.142857t-7.714286-138q-5.142857-15.428571-19.428571-22.857143t-29.714286-2.285714-22.857143 19.428571-2.857143 29.714286q16 46.857143 5.714286 98.285714t-45.714286 90.285714q-35.428571 39.428571-84.571429 54.571429t-98.857143 4.857143q-16-3.428571-29.714286 5.428571t-17.142857 24.857143 5.428571 29.428571 24.857143 16.857143q70.285714 14.857143 139.428571-6.571429t118.857143-76.857143z"  horiz-adv-x="1024" />

    


  </font>
</defs>
</svg>
